<svg xmlns="http://www.w3.org/2000/svg" width="97.513" height="110.538" viewBox="0 0 97.513 110.538"><defs><style>.a,.c{fill:none;}.a,.b,.c{stroke:#fb991c;}.a{stroke-linecap:round;stroke-linejoin:round;}.b{fill:#022539;}</style></defs><g transform="translate(-459.5 -636.974)"><g transform="translate(454 634.474)"><path class="a" d="M54.162,3H16.7A10.7,10.7,0,0,0,6,13.7V99.323a10.7,10.7,0,0,0,10.7,10.7H80.918a10.7,10.7,0,0,0,10.7-10.7V40.459Z" transform="translate(0 0)"/><path class="a" d="M19.5,3V40.459H56.959" transform="translate(34.662 0)"/></g><path class="b" d="M32.695,18.244l3.278-3.208a1.7,1.7,0,0,0-.76-2.876l-4.466-1.14L32.006,6.6a1.727,1.727,0,0,0-2.115-2.115l-4.42,1.259L24.332,1.276A1.71,1.71,0,0,0,21.457.515l-3.207,3.3L15.043.515a1.71,1.71,0,0,0-2.875.761L11.029,5.744,6.609,4.484A1.727,1.727,0,0,0,4.495,6.6L5.754,11.02,1.287,12.16a1.7,1.7,0,0,0-.76,2.876l3.278,3.208L.527,21.453a1.7,1.7,0,0,0,.76,2.876l4.466,1.14L4.494,29.889A1.727,1.727,0,0,0,6.609,32l4.42-1.259,1.139,4.468a1.7,1.7,0,0,0,2.875.761l3.207-3.279,3.207,3.279a1.7,1.7,0,0,0,2.875-.761l1.139-4.468L29.891,32a1.727,1.727,0,0,0,2.115-2.115l-1.259-4.421,4.466-1.14a1.7,1.7,0,0,0,.76-2.876l-3.278-3.208Z" transform="translate(520 710.5)"/><line class="c" x2="55" transform="translate(470.5 687.5)"/><line class="c" x2="55" transform="translate(470.5 702.5)"/><line class="c" x2="32" transform="translate(470.5 716.5)"/></g></svg>