<svg width="172" height="35" viewBox="0 0 172 35" fill="none" xmlns="http://www.w3.org/2000/svg">
<rect x="0.5" y="0.5" width="171" height="34" rx="9.5" stroke="#FB991C"/>
<path d="M20.4609 23H18.0312L18.0469 21.4453H20.4609C21.1641 21.4453 21.7526 21.2917 22.2266 20.9844C22.7057 20.6771 23.0651 20.237 23.3047 19.6641C23.5495 19.0911 23.6719 18.4089 23.6719 17.6172V17C23.6719 16.3854 23.6016 15.8411 23.4609 15.3672C23.3255 14.8932 23.1224 14.4948 22.8516 14.1719C22.5859 13.849 22.2578 13.6042 21.8672 13.4375C21.4818 13.2708 21.0365 13.1875 20.5312 13.1875H17.9844V11.625H20.5312C21.2865 11.625 21.9766 11.7526 22.6016 12.0078C23.2266 12.2578 23.7656 12.6198 24.2188 13.0938C24.6771 13.5677 25.0286 14.1354 25.2734 14.7969C25.5182 15.4583 25.6406 16.1979 25.6406 17.0156V17.6172C25.6406 18.4349 25.5182 19.1745 25.2734 19.8359C25.0286 20.4974 24.6771 21.0651 24.2188 21.5391C23.7604 22.0078 23.2135 22.3698 22.5781 22.625C21.9479 22.875 21.2422 23 20.4609 23ZM19.1172 11.625V23H17.1562V11.625H19.1172ZM27.0625 18.8672V18.6875C27.0625 18.0781 27.151 17.513 27.3281 16.9922C27.5052 16.4661 27.7604 16.0104 28.0938 15.625C28.4323 15.2344 28.8438 14.9323 29.3281 14.7188C29.8177 14.5 30.3698 14.3906 30.9844 14.3906C31.6042 14.3906 32.1562 14.5 32.6406 14.7188C33.1302 14.9323 33.5443 15.2344 33.8828 15.625C34.2214 16.0104 34.4792 16.4661 34.6562 16.9922C34.8333 17.513 34.9219 18.0781 34.9219 18.6875V18.8672C34.9219 19.4766 34.8333 20.0417 34.6562 20.5625C34.4792 21.0833 34.2214 21.5391 33.8828 21.9297C33.5443 22.3151 33.1328 22.6172 32.6484 22.8359C32.1641 23.0495 31.6146 23.1562 31 23.1562C30.3802 23.1562 29.8255 23.0495 29.3359 22.8359C28.8516 22.6172 28.4401 22.3151 28.1016 21.9297C27.763 21.5391 27.5052 21.0833 27.3281 20.5625C27.151 20.0417 27.0625 19.4766 27.0625 18.8672ZM28.9453 18.6875V18.8672C28.9453 19.2474 28.9844 19.6068 29.0625 19.9453C29.1406 20.2839 29.263 20.5807 29.4297 20.8359C29.5964 21.0911 29.8099 21.2917 30.0703 21.4375C30.3307 21.5833 30.6406 21.6562 31 21.6562C31.349 21.6562 31.651 21.5833 31.9062 21.4375C32.1667 21.2917 32.3802 21.0911 32.5469 20.8359C32.7135 20.5807 32.8359 20.2839 32.9141 19.9453C32.9974 19.6068 33.0391 19.2474 33.0391 18.8672V18.6875C33.0391 18.3125 32.9974 17.9583 32.9141 17.625C32.8359 17.2865 32.7109 16.987 32.5391 16.7266C32.3724 16.4661 32.1589 16.263 31.8984 16.1172C31.6432 15.9661 31.3385 15.8906 30.9844 15.8906C30.6302 15.8906 30.3229 15.9661 30.0625 16.1172C29.8073 16.263 29.5964 16.4661 29.4297 16.7266C29.263 16.987 29.1406 17.2865 29.0625 17.625C28.9844 17.9583 28.9453 18.3125 28.9453 18.6875ZM38.7969 21.125L40.75 14.5469H41.9531L41.625 16.5156L39.6562 23H38.5781L38.7969 21.125ZM37.6484 14.5469L39.1719 21.1562L39.2969 23H38.0938L35.8047 14.5469H37.6484ZM43.7812 21.0781L45.2578 14.5469H47.0938L44.8125 23H43.6094L43.7812 21.0781ZM42.1562 14.5469L44.0859 21.0469L44.3281 23H43.25L41.2578 16.5078L40.9297 14.5469H42.1562ZM50.2422 16.3516V23H48.3594V14.5469H50.1328L50.2422 16.3516ZM49.9062 18.4609L49.2969 18.4531C49.3021 17.8542 49.3854 17.3047 49.5469 16.8047C49.7135 16.3047 49.9427 15.875 50.2344 15.5156C50.5312 15.1562 50.8854 14.8802 51.2969 14.6875C51.7083 14.4896 52.1667 14.3906 52.6719 14.3906C53.0781 14.3906 53.4453 14.4479 53.7734 14.5625C54.1068 14.6719 54.3906 14.8516 54.625 15.1016C54.8646 15.3516 55.0469 15.6771 55.1719 16.0781C55.2969 16.474 55.3594 16.9609 55.3594 17.5391V23H53.4688V17.5312C53.4688 17.125 53.4089 16.8047 53.2891 16.5703C53.1745 16.3307 53.0052 16.1615 52.7812 16.0625C52.5625 15.9583 52.2891 15.9062 51.9609 15.9062C51.638 15.9062 51.349 15.974 51.0938 16.1094C50.8385 16.2448 50.6224 16.4297 50.4453 16.6641C50.2734 16.8984 50.1406 17.1693 50.0469 17.4766C49.9531 17.7839 49.9062 18.112 49.9062 18.4609ZM59.2969 11V23H57.4062V11H59.2969ZM61 18.8672V18.6875C61 18.0781 61.0885 17.513 61.2656 16.9922C61.4427 16.4661 61.6979 16.0104 62.0312 15.625C62.3698 15.2344 62.7812 14.9323 63.2656 14.7188C63.7552 14.5 64.3073 14.3906 64.9219 14.3906C65.5417 14.3906 66.0938 14.5 66.5781 14.7188C67.0677 14.9323 67.4818 15.2344 67.8203 15.625C68.1589 16.0104 68.4167 16.4661 68.5938 16.9922C68.7708 17.513 68.8594 18.0781 68.8594 18.6875V18.8672C68.8594 19.4766 68.7708 20.0417 68.5938 20.5625C68.4167 21.0833 68.1589 21.5391 67.8203 21.9297C67.4818 22.3151 67.0703 22.6172 66.5859 22.8359C66.1016 23.0495 65.5521 23.1562 64.9375 23.1562C64.3177 23.1562 63.763 23.0495 63.2734 22.8359C62.7891 22.6172 62.3776 22.3151 62.0391 21.9297C61.7005 21.5391 61.4427 21.0833 61.2656 20.5625C61.0885 20.0417 61 19.4766 61 18.8672ZM62.8828 18.6875V18.8672C62.8828 19.2474 62.9219 19.6068 63 19.9453C63.0781 20.2839 63.2005 20.5807 63.3672 20.8359C63.5339 21.0911 63.7474 21.2917 64.0078 21.4375C64.2682 21.5833 64.5781 21.6562 64.9375 21.6562C65.2865 21.6562 65.5885 21.5833 65.8438 21.4375C66.1042 21.2917 66.3177 21.0911 66.4844 20.8359C66.651 20.5807 66.7734 20.2839 66.8516 19.9453C66.9349 19.6068 66.9766 19.2474 66.9766 18.8672V18.6875C66.9766 18.3125 66.9349 17.9583 66.8516 17.625C66.7734 17.2865 66.6484 16.987 66.4766 16.7266C66.3099 16.4661 66.0964 16.263 65.8359 16.1172C65.5807 15.9661 65.276 15.8906 64.9219 15.8906C64.5677 15.8906 64.2604 15.9661 64 16.1172C63.7448 16.263 63.5339 16.4661 63.3672 16.7266C63.2005 16.987 63.0781 17.2865 63 17.625C62.9219 17.9583 62.8828 18.3125 62.8828 18.6875ZM75.2031 21.3047V17.2734C75.2031 16.9714 75.1484 16.7109 75.0391 16.4922C74.9297 16.2734 74.763 16.1042 74.5391 15.9844C74.3203 15.8646 74.0443 15.8047 73.7109 15.8047C73.4036 15.8047 73.138 15.8568 72.9141 15.9609C72.6901 16.0651 72.5156 16.2057 72.3906 16.3828C72.2656 16.5599 72.2031 16.7604 72.2031 16.9844H70.3281C70.3281 16.651 70.4089 16.3281 70.5703 16.0156C70.7318 15.7031 70.9661 15.4245 71.2734 15.1797C71.5807 14.9349 71.9479 14.7422 72.375 14.6016C72.8021 14.4609 73.2812 14.3906 73.8125 14.3906C74.4479 14.3906 75.0104 14.4974 75.5 14.7109C75.9948 14.9245 76.3828 15.2474 76.6641 15.6797C76.9505 16.1068 77.0938 16.6432 77.0938 17.2891V21.0469C77.0938 21.4323 77.1198 21.7786 77.1719 22.0859C77.2292 22.388 77.3099 22.651 77.4141 22.875V23H75.4844C75.3958 22.7969 75.3255 22.5391 75.2734 22.2266C75.2266 21.9089 75.2031 21.6016 75.2031 21.3047ZM75.4766 17.8594L75.4922 19.0234H74.1406C73.7917 19.0234 73.4844 19.0573 73.2188 19.125C72.9531 19.1875 72.7318 19.2812 72.5547 19.4062C72.3776 19.5312 72.2448 19.6823 72.1562 19.8594C72.0677 20.0365 72.0234 20.237 72.0234 20.4609C72.0234 20.6849 72.0755 20.8906 72.1797 21.0781C72.2839 21.2604 72.4349 21.4036 72.6328 21.5078C72.8359 21.612 73.0807 21.6641 73.3672 21.6641C73.7526 21.6641 74.0885 21.5859 74.375 21.4297C74.6667 21.2682 74.8958 21.0729 75.0625 20.8438C75.2292 20.6094 75.3177 20.388 75.3281 20.1797L75.9375 21.0156C75.875 21.2292 75.7682 21.4583 75.6172 21.7031C75.4661 21.9479 75.2682 22.1823 75.0234 22.4062C74.7839 22.625 74.4948 22.8047 74.1562 22.9453C73.8229 23.0859 73.4375 23.1562 73 23.1562C72.4479 23.1562 71.9557 23.0469 71.5234 22.8281C71.0911 22.6042 70.7526 22.3047 70.5078 21.9297C70.263 21.5495 70.1406 21.1198 70.1406 20.6406C70.1406 20.1927 70.224 19.7969 70.3906 19.4531C70.5625 19.1042 70.8125 18.8125 71.1406 18.5781C71.474 18.3438 71.8802 18.1667 72.3594 18.0469C72.8385 17.9219 73.3854 17.8594 74 17.8594H75.4766ZM84.2188 21.25V11H86.1094V23H84.3984L84.2188 21.25ZM78.7188 18.8672V18.7031C78.7188 18.0625 78.7943 17.4792 78.9453 16.9531C79.0964 16.4219 79.3151 15.9661 79.6016 15.5859C79.888 15.2005 80.237 14.9062 80.6484 14.7031C81.0599 14.4948 81.5234 14.3906 82.0391 14.3906C82.5495 14.3906 82.9974 14.4896 83.3828 14.6875C83.7682 14.8854 84.0964 15.1693 84.3672 15.5391C84.638 15.9036 84.8542 16.3411 85.0156 16.8516C85.1771 17.3568 85.2917 17.9193 85.3594 18.5391V19.0625C85.2917 19.6667 85.1771 20.2188 85.0156 20.7188C84.8542 21.2188 84.638 21.651 84.3672 22.0156C84.0964 22.3802 83.7656 22.6615 83.375 22.8594C82.9896 23.0573 82.5391 23.1562 82.0234 23.1562C81.513 23.1562 81.0521 23.0495 80.6406 22.8359C80.2344 22.6224 79.888 22.3229 79.6016 21.9375C79.3151 21.5521 79.0964 21.099 78.9453 20.5781C78.7943 20.0521 78.7188 19.4818 78.7188 18.8672ZM80.6016 18.7031V18.8672C80.6016 19.2526 80.6354 19.612 80.7031 19.9453C80.776 20.2786 80.888 20.5729 81.0391 20.8281C81.1901 21.0781 81.3854 21.276 81.625 21.4219C81.8698 21.5625 82.1615 21.6328 82.5 21.6328C82.9271 21.6328 83.2786 21.5391 83.5547 21.3516C83.8307 21.1641 84.0469 20.9115 84.2031 20.5938C84.3646 20.2708 84.474 19.9115 84.5312 19.5156V18.1016C84.5 17.7943 84.4349 17.5078 84.3359 17.2422C84.2422 16.9766 84.1146 16.7448 83.9531 16.5469C83.7917 16.3438 83.5911 16.1875 83.3516 16.0781C83.1172 15.9635 82.8385 15.9062 82.5156 15.9062C82.1719 15.9062 81.8802 15.9792 81.6406 16.125C81.401 16.2708 81.2031 16.4714 81.0469 16.7266C80.8958 16.9818 80.7839 17.2786 80.7109 17.6172C80.638 17.9557 80.6016 18.3177 80.6016 18.7031ZM92.25 11.625H96.2734C97.138 11.625 97.875 11.7552 98.4844 12.0156C99.0938 12.276 99.5599 12.6615 99.8828 13.1719C100.211 13.6771 100.375 14.3021 100.375 15.0469C100.375 15.6146 100.271 16.1146 100.062 16.5469C99.8542 16.9792 99.5599 17.3438 99.1797 17.6406C98.7995 17.9323 98.3464 18.1589 97.8203 18.3203L97.2266 18.6094H93.6094L93.5938 17.0547H96.3047C96.7734 17.0547 97.1641 16.9714 97.4766 16.8047C97.7891 16.638 98.0234 16.4115 98.1797 16.125C98.3411 15.8333 98.4219 15.5052 98.4219 15.1406C98.4219 14.7448 98.3438 14.401 98.1875 14.1094C98.0365 13.8125 97.8021 13.5859 97.4844 13.4297C97.1667 13.2682 96.763 13.1875 96.2734 13.1875H94.2109V23H92.25V11.625ZM98.7422 23L96.0703 17.8906L98.125 17.8828L100.836 22.8984V23H98.7422ZM105.867 23.1562C105.242 23.1562 104.677 23.0547 104.172 22.8516C103.672 22.6432 103.245 22.3542 102.891 21.9844C102.542 21.6146 102.273 21.1797 102.086 20.6797C101.898 20.1797 101.805 19.6406 101.805 19.0625V18.75C101.805 18.0885 101.901 17.4896 102.094 16.9531C102.286 16.4167 102.555 15.9583 102.898 15.5781C103.242 15.1927 103.648 14.8984 104.117 14.6953C104.586 14.4922 105.094 14.3906 105.641 14.3906C106.245 14.3906 106.773 14.4922 107.227 14.6953C107.68 14.8984 108.055 15.1849 108.352 15.5547C108.654 15.9193 108.878 16.3542 109.023 16.8594C109.174 17.3646 109.25 17.9219 109.25 18.5312V19.3359H102.719V17.9844H107.391V17.8359C107.38 17.4974 107.312 17.1797 107.188 16.8828C107.068 16.5859 106.883 16.3464 106.633 16.1641C106.383 15.9818 106.049 15.8906 105.633 15.8906C105.32 15.8906 105.042 15.9583 104.797 16.0938C104.557 16.224 104.357 16.4141 104.195 16.6641C104.034 16.9141 103.909 17.2161 103.82 17.5703C103.737 17.9193 103.695 18.3125 103.695 18.75V19.0625C103.695 19.4323 103.745 19.776 103.844 20.0938C103.948 20.4062 104.099 20.6797 104.297 20.9141C104.495 21.1484 104.734 21.3333 105.016 21.4688C105.297 21.599 105.617 21.6641 105.977 21.6641C106.43 21.6641 106.833 21.5729 107.188 21.3906C107.542 21.2083 107.849 20.9505 108.109 20.6172L109.102 21.5781C108.919 21.8438 108.682 22.099 108.391 22.3438C108.099 22.5833 107.742 22.7786 107.32 22.9297C106.904 23.0807 106.419 23.1562 105.867 23.1562ZM115.461 20.7109C115.461 20.5234 115.414 20.3542 115.32 20.2031C115.227 20.0469 115.047 19.9062 114.781 19.7812C114.521 19.6562 114.135 19.5417 113.625 19.4375C113.177 19.3385 112.766 19.2214 112.391 19.0859C112.021 18.9453 111.703 18.776 111.438 18.5781C111.172 18.3802 110.966 18.1458 110.82 17.875C110.674 17.6042 110.602 17.2917 110.602 16.9375C110.602 16.5938 110.677 16.2682 110.828 15.9609C110.979 15.6536 111.195 15.3828 111.477 15.1484C111.758 14.9141 112.099 14.7292 112.5 14.5938C112.906 14.4583 113.359 14.3906 113.859 14.3906C114.568 14.3906 115.174 14.5104 115.68 14.75C116.19 14.9844 116.581 15.3047 116.852 15.7109C117.122 16.112 117.258 16.5651 117.258 17.0703H115.375C115.375 16.8464 115.318 16.638 115.203 16.4453C115.094 16.2474 114.927 16.0885 114.703 15.9688C114.479 15.8438 114.198 15.7812 113.859 15.7812C113.536 15.7812 113.268 15.8333 113.055 15.9375C112.846 16.0365 112.69 16.1667 112.586 16.3281C112.487 16.4896 112.438 16.6667 112.438 16.8594C112.438 17 112.464 17.1276 112.516 17.2422C112.573 17.3516 112.667 17.4531 112.797 17.5469C112.927 17.6354 113.104 17.7188 113.328 17.7969C113.557 17.875 113.844 17.9505 114.188 18.0234C114.833 18.1589 115.388 18.3333 115.852 18.5469C116.32 18.7552 116.68 19.026 116.93 19.3594C117.18 19.6875 117.305 20.1042 117.305 20.6094C117.305 20.9844 117.224 21.3281 117.062 21.6406C116.906 21.9479 116.677 22.2161 116.375 22.4453C116.073 22.6693 115.711 22.8438 115.289 22.9688C114.872 23.0938 114.404 23.1562 113.883 23.1562C113.117 23.1562 112.469 23.0208 111.938 22.75C111.406 22.474 111.003 22.1224 110.727 21.6953C110.456 21.263 110.32 20.8151 110.32 20.3516H112.141C112.161 20.7005 112.258 20.9792 112.43 21.1875C112.607 21.3906 112.826 21.5391 113.086 21.6328C113.352 21.7214 113.625 21.7656 113.906 21.7656C114.245 21.7656 114.529 21.7214 114.758 21.6328C114.987 21.5391 115.161 21.4141 115.281 21.2578C115.401 21.0964 115.461 20.9141 115.461 20.7109ZM124.039 21.0078V14.5469H125.93V23H124.148L124.039 21.0078ZM124.305 19.25L124.938 19.2344C124.938 19.8021 124.875 20.3255 124.75 20.8047C124.625 21.2786 124.432 21.6927 124.172 22.0469C123.911 22.3958 123.578 22.6693 123.172 22.8672C122.766 23.0599 122.279 23.1562 121.711 23.1562C121.299 23.1562 120.922 23.0964 120.578 22.9766C120.234 22.8568 119.938 22.6719 119.688 22.4219C119.443 22.1719 119.253 21.8464 119.117 21.4453C118.982 21.0443 118.914 20.5651 118.914 20.0078V14.5469H120.797V20.0234C120.797 20.3307 120.833 20.5885 120.906 20.7969C120.979 21 121.078 21.1641 121.203 21.2891C121.328 21.4141 121.474 21.5026 121.641 21.5547C121.807 21.6068 121.984 21.6328 122.172 21.6328C122.708 21.6328 123.13 21.5286 123.438 21.3203C123.75 21.1068 123.971 20.8203 124.102 20.4609C124.237 20.1016 124.305 19.6979 124.305 19.25ZM129.742 16.2656V23H127.859V14.5469H129.633L129.742 16.2656ZM129.438 18.4609L128.797 18.4531C128.797 17.8698 128.87 17.3307 129.016 16.8359C129.161 16.3411 129.375 15.9115 129.656 15.5469C129.938 15.1771 130.286 14.8932 130.703 14.6953C131.125 14.4922 131.612 14.3906 132.164 14.3906C132.549 14.3906 132.901 14.4479 133.219 14.5625C133.542 14.6719 133.82 14.8464 134.055 15.0859C134.294 15.3255 134.477 15.6328 134.602 16.0078C134.732 16.3828 134.797 16.8359 134.797 17.3672V23H132.914V17.5312C132.914 17.1198 132.852 16.7969 132.727 16.5625C132.607 16.3281 132.432 16.1615 132.203 16.0625C131.979 15.9583 131.711 15.9062 131.398 15.9062C131.044 15.9062 130.742 15.974 130.492 16.1094C130.247 16.2448 130.047 16.4297 129.891 16.6641C129.734 16.8984 129.62 17.1693 129.547 17.4766C129.474 17.7839 129.438 18.112 129.438 18.4609ZM134.68 17.9609L133.797 18.1562C133.797 17.6458 133.867 17.1641 134.008 16.7109C134.154 16.2526 134.365 15.8516 134.641 15.5078C134.922 15.1589 135.268 14.8854 135.68 14.6875C136.091 14.4896 136.562 14.3906 137.094 14.3906C137.526 14.3906 137.911 14.4505 138.25 14.5703C138.594 14.6849 138.885 14.8672 139.125 15.1172C139.365 15.3672 139.547 15.6927 139.672 16.0938C139.797 16.4896 139.859 16.9688 139.859 17.5312V23H137.969V17.5234C137.969 17.0964 137.906 16.7656 137.781 16.5312C137.661 16.2969 137.49 16.1354 137.266 16.0469C137.042 15.9531 136.773 15.9062 136.461 15.9062C136.169 15.9062 135.911 15.9609 135.688 16.0703C135.469 16.1745 135.284 16.3229 135.133 16.5156C134.982 16.7031 134.867 16.9193 134.789 17.1641C134.716 17.4089 134.68 17.6745 134.68 17.9609ZM145.523 23.1562C144.898 23.1562 144.333 23.0547 143.828 22.8516C143.328 22.6432 142.901 22.3542 142.547 21.9844C142.198 21.6146 141.93 21.1797 141.742 20.6797C141.555 20.1797 141.461 19.6406 141.461 19.0625V18.75C141.461 18.0885 141.557 17.4896 141.75 16.9531C141.943 16.4167 142.211 15.9583 142.555 15.5781C142.898 15.1927 143.305 14.8984 143.773 14.6953C144.242 14.4922 144.75 14.3906 145.297 14.3906C145.901 14.3906 146.43 14.4922 146.883 14.6953C147.336 14.8984 147.711 15.1849 148.008 15.5547C148.31 15.9193 148.534 16.3542 148.68 16.8594C148.831 17.3646 148.906 17.9219 148.906 18.5312V19.3359H142.375V17.9844H147.047V17.8359C147.036 17.4974 146.969 17.1797 146.844 16.8828C146.724 16.5859 146.539 16.3464 146.289 16.1641C146.039 15.9818 145.706 15.8906 145.289 15.8906C144.977 15.8906 144.698 15.9583 144.453 16.0938C144.214 16.224 144.013 16.4141 143.852 16.6641C143.69 16.9141 143.565 17.2161 143.477 17.5703C143.393 17.9193 143.352 18.3125 143.352 18.75V19.0625C143.352 19.4323 143.401 19.776 143.5 20.0938C143.604 20.4062 143.755 20.6797 143.953 20.9141C144.151 21.1484 144.391 21.3333 144.672 21.4688C144.953 21.599 145.273 21.6641 145.633 21.6641C146.086 21.6641 146.49 21.5729 146.844 21.3906C147.198 21.2083 147.505 20.9505 147.766 20.6172L148.758 21.5781C148.576 21.8438 148.339 22.099 148.047 22.3438C147.755 22.5833 147.398 22.7786 146.977 22.9297C146.56 23.0807 146.076 23.1562 145.523 23.1562Z" fill="#FB991C"/>
</svg>
