<svg xmlns="http://www.w3.org/2000/svg" width="72" height="72" viewBox="0 0 72 72"><defs><style>.a{fill:rgba(248,248,248,0.21);opacity:0.2;}.b{fill:#0acf83;}.c{fill:#a259ff;}.d{fill:#f24e1e;}.e{fill:#ff7262;}.f{fill:#1abcfe;}.g{fill:rgba(255,255,255,0.1);}</style></defs><g transform="translate(-323 -1120)"><rect class="a" width="72" height="72" transform="translate(323 1120)"/><path class="b" d="M5.833,211.667a5.835,5.835,0,0,0,5.833-5.833V200H5.833a5.833,5.833,0,0,0,0,11.667Z" transform="translate(347 962.333)"/><path class="c" d="M0,105.833A5.835,5.835,0,0,1,5.833,100h5.833v11.667H5.833A5.835,5.835,0,0,1,0,105.833Z" transform="translate(347 1050.667)"/><path class="d" d="M0,5.833A5.835,5.835,0,0,1,5.833,0h5.833V11.667H5.833A5.835,5.835,0,0,1,0,5.833Z" transform="translate(347 1139)"/><path class="e" d="M100,0h5.833a5.833,5.833,0,0,1,0,11.667H100Z" transform="translate(258.667 1139)"/><path class="f" d="M111.667,105.833A5.833,5.833,0,1,1,105.833,100,5.835,5.835,0,0,1,111.667,105.833Z" transform="translate(258.667 1050.667)"/><rect class="d" width="52" height="5" transform="translate(323 1120)"/><rect class="g" width="20" height="5" transform="translate(375 1120)"/></g></svg>