<svg xmlns="http://www.w3.org/2000/svg" width="91.121" height="104.009" viewBox="0 0 91.121 104.009"><defs><style>.a{fill:#022539;stroke:#fb991c;}</style></defs><path class="a" d="M64.251,64.5,45.06,83.687,25.869,64.5A26.976,26.976,0,0,0,0,91.411v1.931A9.658,9.658,0,0,0,9.656,103H80.465a9.658,9.658,0,0,0,9.656-9.656V91.411A26.976,26.976,0,0,0,64.251,64.5ZM2.736,16.056l1.287.3V28.106a4.647,4.647,0,0,0-.181,8.046L.7,48.685C.362,50.073,1.127,51.5,2.233,51.5h8.409c1.106,0,1.871-1.428,1.529-2.816L9.032,36.152a4.647,4.647,0,0,0-.181-8.046V17.524l13.277,3.2A25.7,25.7,0,1,0,70.809,32.189a25.29,25.29,0,0,0-2.816-11.466l19.372-4.667c3.661-.885,3.661-5.451,0-6.337L49.063.466a17.28,17.28,0,0,0-7.986,0L2.736,9.7a3.215,3.215,0,0,0,0,6.357Z" transform="translate(0.5 0.51)"/></svg>