<svg xmlns="http://www.w3.org/2000/svg" width="78.857" height="57.186" viewBox="0 0 78.857 57.186"><defs><style>.a{fill:#fb991c;}.b{fill:#022539;}</style></defs><g transform="translate(-324 -240)"><g transform="translate(16 84)"><path class="a" d="M83.357,42.751A6.558,6.558,0,0,1,76.612,49.1l-58.623-.127L4.5,61.686V10.854A6.558,6.558,0,0,1,11.245,4.5l65.368.127a6.558,6.558,0,0,1,6.745,6.354v31.77Z" transform="translate(303.5 151.5)"/><path class="b" d="M10.273,0H7.93V-4.875H3.359V0H1.016V-11.375H3.359v4.609H7.93v-4.609h2.344Zm4.281,0H12.289V-8.453h2.266Zm-2.4-10.641a1.112,1.112,0,0,1,.34-.836,1.277,1.277,0,0,1,.926-.328,1.28,1.28,0,0,1,.922.328,1.105,1.105,0,0,1,.344.836,1.108,1.108,0,0,1-.348.844,1.283,1.283,0,0,1-.918.328A1.283,1.283,0,0,1,12.5-9.8,1.108,1.108,0,0,1,12.156-10.641ZM17,2.852l-1.18-.617.281-.508a4.059,4.059,0,0,0,.539-1.9v-1.75h1.906L18.539-.359a4.059,4.059,0,0,1-.437,1.75A4.486,4.486,0,0,1,17,2.852ZM26.945,0H24.6V-11.375h2.344ZM37.852,0a2.507,2.507,0,0,1-.227-.758,2.732,2.732,0,0,1-2.133.914,3,3,0,0,1-2.059-.719,2.312,2.312,0,0,1-.816-1.812,2.389,2.389,0,0,1,1-2.062,4.915,4.915,0,0,1,2.879-.727h1.039v-.484a1.393,1.393,0,0,0-.3-.937,1.183,1.183,0,0,0-.949-.352,1.345,1.345,0,0,0-.895.273.929.929,0,0,0-.324.75H32.8a2.268,2.268,0,0,1,.453-1.359,3,3,0,0,1,1.281-.98A4.669,4.669,0,0,1,36.4-8.609a3.689,3.689,0,0,1,2.48.785A2.747,2.747,0,0,1,39.8-5.617v3.664a4.041,4.041,0,0,0,.336,1.82V0ZM35.984-1.57a1.945,1.945,0,0,0,.922-.223,1.462,1.462,0,0,0,.625-.6V-3.844h-.844q-1.7,0-1.8,1.172l-.008.133a.9.9,0,0,0,.3.7A1.153,1.153,0,0,0,35.984-1.57Zm7.664-6.883.07.945a2.971,2.971,0,0,1,2.43-1.1A2.255,2.255,0,0,1,48.391-7.32,2.9,2.9,0,0,1,50.93-8.609a2.521,2.521,0,0,1,2.047.8,3.681,3.681,0,0,1,.672,2.41V0H51.383V-5.391A1.61,1.61,0,0,0,51.1-6.441a1.246,1.246,0,0,0-.992-.332A1.409,1.409,0,0,0,48.7-5.8L48.711,0H46.453V-5.383a1.59,1.59,0,0,0-.289-1.062,1.259,1.259,0,0,0-.984-.328,1.463,1.463,0,0,0-1.391.8V0H41.531V-8.453Z" transform="translate(320 183)"/></g></g></svg>