<svg width="32" height="32" viewBox="0 0 32 32" fill="none" xmlns="http://www.w3.org/2000/svg">
<g clip-path="url(#clip0_1191_6421)">
<rect width="31.5" height="31.5" rx="3.5" fill="#FB991C"/>
<path d="M16 6C14.3277 6.00171 12.6826 6.42276 11.2151 7.22463C9.74765 8.0265 8.5047 9.18359 7.6 10.59V10.59C6.32757 12.5856 5.80415 14.9677 6.12283 17.3129C6.44151 19.658 7.58163 21.8142 9.34043 23.3978C11.0992 24.9815 13.3627 25.89 15.7283 25.9618C18.094 26.0336 20.4084 25.264 22.26 23.79V23.79C23.8715 22.4929 25.0411 20.7278 25.6076 18.7382C26.174 16.7485 26.1095 14.6321 25.4228 12.6807C24.7361 10.7292 23.4611 9.03878 21.7735 7.84228C20.0859 6.64578 18.0687 6.00212 16 6V6ZM18 8.26C19.3818 8.61769 20.6428 9.33858 21.6521 10.3479C22.6614 11.3572 23.3823 12.6182 23.74 14C22.068 14.0471 20.436 14.5222 19 15.38C18.2789 14.562 17.4746 13.8213 16.6 13.17C17.4811 11.681 17.9633 9.98983 18 8.26V8.26ZM16 8C15.9967 9.43503 15.6026 10.8421 14.86 12.07C14.71 11.99 14.57 11.9 14.42 11.83C13.1324 11.1506 11.7555 10.6557 10.33 10.36C11.073 9.61252 11.9565 9.01923 12.9295 8.61423C13.9026 8.20922 14.946 8.00048 16 8V8ZM9 12.16C10.5684 12.3779 12.0874 12.865 13.49 13.6L13.62 13.68C12.8819 14.4174 12.0056 15.0019 11.0412 15.4C10.0768 15.7981 9.04333 16.002 8 16C8.00557 14.6563 8.34948 13.3357 9 12.16V12.16ZM14 23.74C12.6182 23.3823 11.3572 22.6614 10.3479 21.6521C9.33858 20.6428 8.6177 19.3818 8.26 18C9.59566 17.9703 10.9115 17.6707 12.1283 17.119C13.345 16.5673 14.4375 15.7751 15.34 14.79C16.0629 15.3244 16.7327 15.9272 17.34 16.59C16.3274 17.4929 15.5091 18.5924 14.9349 19.8216C14.3607 21.0508 14.0426 22.384 14 23.74V23.74ZM16 24C16.0022 22.9014 16.2306 21.815 16.671 20.8085C17.1115 19.802 17.7545 18.8971 18.56 18.15C18.62 18.23 18.68 18.3 18.73 18.38C19.568 19.6632 20.1896 21.0753 20.57 22.56C19.2316 23.4997 17.6354 24.0027 16 24ZM22.21 21C21.7757 19.677 21.1706 18.4163 20.41 17.25L20.2 17C21.3627 16.3532 22.6695 16.0093 24 16C23.9901 17.8219 23.3586 19.5858 22.21 21Z" fill="#022539"/>
</g>
<defs>
<clipPath id="clip0_1191_6421">
<rect width="31.5" height="31.5" fill="white"/>
</clipPath>
</defs>
</svg>
