<svg xmlns="http://www.w3.org/2000/svg" width="72" height="72" viewBox="0 0 72 72"><defs><style>.a{fill:#fc2a62;}.b{fill:rgba(248,248,248,0.21);opacity:0.2;}.c{fill:rgba(255,255,255,0.1);}.d{fill:#fc3369;}</style></defs><g transform="translate(-537 -1120)"><path class="a" d="M28.645,2.25H2.855A2.857,2.857,0,0,0,0,5.1V30.9A2.857,2.857,0,0,0,2.855,33.75H28.645A2.857,2.857,0,0,0,31.5,30.9V5.1A2.857,2.857,0,0,0,28.645,2.25ZM12.382,10.238a1.888,1.888,0,1,1-3.776.028,1.888,1.888,0,0,1,3.776-.028ZM23.4,26.508c-4.613,0-2.4-5.2-1.758-7.5.991-3.262-3.178-4.148-4.212.049l-1.814,7.263H12.445l.57-2.285c-2.215,3.642-6.652,3.122-6.652-.3.007-1.005.063-.984,1.617-7.32H5.745l.682-2.5H11.8c-2.363,9.4-2.292,8.923-2.313,9.717,0,1.47,2.876.949,4.036-1.631l1.392-5.583H12.642l.682-2.5h4.837l-.626,2.848c2.848-5.309,8.993-3.361,7.158,2.672-1,3.593-1.027,3.565-1.048,4.134,0,1.09,1.23,1.589,2.236-1.188l1.259.471C26.4,25.432,25.073,26.508,23.4,26.508Z" transform="translate(557 1137.75)"/><rect class="b" width="72" height="72" transform="translate(537 1120)"/><rect class="c" width="34" height="5" transform="translate(575 1120)"/><rect class="d" width="38" height="5" transform="translate(537 1120)"/></g></svg>