<svg width="72" height="72" viewBox="0 0 72 72" fill="none" xmlns="http://www.w3.org/2000/svg">
<path opacity="0.21" d="M72 0H0V72H72V0Z" fill="#E5E5E5" fill-opacity="0.21"/>
<path d="M58 0H0V5H58V0Z" fill="#F7DF1E"/>
<path d="M72 0H58V5H72V0Z" fill="white" fill-opacity="0.1"/>
<path d="M24.5 49L36 53L48 49L50.5 19H22L24.5 49Z" fill="#F7DF1E"/>
<path d="M31.5078 36.4688V28.625H34.0391V36.4688C34.0391 37.2292 33.8672 37.8854 33.5234 38.4375C33.1849 38.9844 32.724 39.4089 32.1406 39.7109C31.5625 40.0078 30.9089 40.1562 30.1797 40.1562C29.4297 40.1562 28.763 40.0312 28.1797 39.7812C27.5964 39.526 27.138 39.138 26.8047 38.6172C26.4766 38.0911 26.3125 37.4219 26.3125 36.6094H28.8594C28.8594 37.0104 28.9089 37.3281 29.0078 37.5625C29.112 37.7917 29.263 37.9531 29.4609 38.0469C29.6589 38.1406 29.8984 38.1875 30.1797 38.1875C30.4505 38.1875 30.6849 38.1224 30.8828 37.9922C31.0807 37.8568 31.2344 37.6615 31.3438 37.4062C31.4531 37.1458 31.5078 36.8333 31.5078 36.4688ZM41.8047 37C41.8047 36.8073 41.776 36.6354 41.7188 36.4844C41.6615 36.3281 41.5573 36.1849 41.4062 36.0547C41.2552 35.9245 41.0417 35.7943 40.7656 35.6641C40.4896 35.5286 40.1276 35.3906 39.6797 35.25C39.1693 35.0833 38.6823 34.8958 38.2188 34.6875C37.7604 34.474 37.3516 34.2266 36.9922 33.9453C36.6328 33.6641 36.349 33.3359 36.1406 32.9609C35.9375 32.5859 35.8359 32.1484 35.8359 31.6484C35.8359 31.1641 35.9427 30.7266 36.1562 30.3359C36.3698 29.9453 36.6693 29.612 37.0547 29.3359C37.4401 29.0547 37.8932 28.8411 38.4141 28.6953C38.9349 28.5443 39.5078 28.4688 40.1328 28.4688C40.9661 28.4688 41.6979 28.6172 42.3281 28.9141C42.9635 29.2057 43.4583 29.6172 43.8125 30.1484C44.1667 30.6745 44.3438 31.2865 44.3438 31.9844H41.8125C41.8125 31.6771 41.7474 31.4062 41.6172 31.1719C41.4922 30.9323 41.2995 30.7448 41.0391 30.6094C40.7839 30.474 40.4635 30.4062 40.0781 30.4062C39.7031 30.4062 39.388 30.4635 39.1328 30.5781C38.8828 30.6875 38.6927 30.8385 38.5625 31.0312C38.4375 31.224 38.375 31.4349 38.375 31.6641C38.375 31.8464 38.4219 32.013 38.5156 32.1641C38.6146 32.3099 38.7552 32.4479 38.9375 32.5781C39.125 32.7031 39.3542 32.8229 39.625 32.9375C39.8958 33.0521 40.2057 33.1615 40.5547 33.2656C41.1641 33.4583 41.7031 33.6719 42.1719 33.9062C42.6458 34.1406 43.0443 34.4062 43.3672 34.7031C43.6901 35 43.9323 35.3359 44.0938 35.7109C44.2604 36.0859 44.3438 36.5104 44.3438 36.9844C44.3438 37.4896 44.2448 37.9375 44.0469 38.3281C43.8542 38.7188 43.5729 39.0521 43.2031 39.3281C42.8385 39.599 42.401 39.8047 41.8906 39.9453C41.3802 40.0859 40.8099 40.1562 40.1797 40.1562C39.6068 40.1562 39.0417 40.0833 38.4844 39.9375C37.9271 39.7865 37.4219 39.5573 36.9688 39.25C36.5208 38.9427 36.1615 38.5521 35.8906 38.0781C35.625 37.599 35.4922 37.0312 35.4922 36.375H38.0391C38.0391 36.7188 38.0885 37.0104 38.1875 37.25C38.2865 37.4844 38.4271 37.6745 38.6094 37.8203C38.7969 37.9661 39.0234 38.0703 39.2891 38.1328C39.5547 38.1953 39.8516 38.2266 40.1797 38.2266C40.5599 38.2266 40.8672 38.1745 41.1016 38.0703C41.3411 37.9609 41.5182 37.8125 41.6328 37.625C41.7474 37.4375 41.8047 37.2292 41.8047 37Z" fill="#0C2D41"/>
</svg>
