<svg xmlns="http://www.w3.org/2000/svg" width="72" height="72" viewBox="0 0 72 72"><defs><style>.a{fill:rgba(248,248,248,0.21);opacity:0.2;}.b,.d{fill:#315cdf;}.b{fill-rule:evenodd;}.c{fill:rgba(255,255,255,0.1);}</style></defs><g transform="translate(-751 -1120)"><rect class="a" width="72" height="72" transform="translate(751 1120)"/><path class="b" d="M1.5,14.067a5.052,5.052,0,0,1,0-7.188L6.938,1.489A5.161,5.161,0,0,1,13.179.71a1.052,1.052,0,0,1,.1,1.677,2.033,2.033,0,0,1-2,.257,2.578,2.578,0,0,0-2.534.642L3.314,8.676a2.526,2.526,0,0,0,0,3.594,2.579,2.579,0,0,0,3.625,0L17.812,1.489a5.157,5.157,0,0,1,7.249,0L30.5,6.879a5.052,5.052,0,0,1,0,7.188,5.157,5.157,0,0,1-7.249,0l-1.812-1.8-2.265,2.246a5.161,5.161,0,0,1-6.241.778,1.052,1.052,0,0,1-.1-1.677,2.033,2.033,0,0,1,2-.257,2.578,2.578,0,0,0,2.534-.642l2.33-2.31a2.487,2.487,0,0,1,3.5,0l1.877,1.861a2.579,2.579,0,0,0,3.625,0,2.526,2.526,0,0,0,0-3.594L23.249,3.286a2.579,2.579,0,0,0-3.625,0L8.751,14.067A5.157,5.157,0,0,1,1.5,14.067Z" transform="translate(771 1148)"/><rect class="c" width="36" height="5" transform="translate(787 1120)"/><rect class="d" width="36" height="5" transform="translate(751 1120)"/></g></svg>